<mxfile host="app.diagrams.net" modified="2021-09-04T15:49:17.773Z" agent="5.0 (Macintosh; Intel Mac OS X 10_15_7) AppleWebKit/537.36 (KHTML, like Gecko) Chrome/92.0.4515.159 Safari/537.36" etag="m1KtyaNEaZ_tETqn3AO7" version="15.0.6" type="github">
  <diagram id="gl40HQNzWeFA6zc8xSAD" name="Page-1">
    <mxGraphModel dx="2365" dy="1615" grid="1" gridSize="10" guides="1" tooltips="1" connect="1" arrows="1" fold="1" page="1" pageScale="1" pageWidth="827" pageHeight="1169" math="0" shadow="0">
      <root>
        <mxCell id="0" />
        <mxCell id="1" parent="0" />
        <mxCell id="89Pmgcc1S83VsgnzRbyy-2" value="A1/31&lt;br&gt;28 x 13" style="rounded=0;whiteSpace=wrap;html=1;direction=south;fontSize=34;" vertex="1" parent="1">
          <mxGeometry x="1080" y="560" width="280" height="130" as="geometry" />
        </mxCell>
        <mxCell id="89Pmgcc1S83VsgnzRbyy-3" value="B1/15&lt;br&gt;24 x 13" style="rounded=0;whiteSpace=wrap;html=1;direction=south;fontSize=34;" vertex="1" parent="1">
          <mxGeometry x="165" y="300" width="240" height="130" as="geometry" />
        </mxCell>
        <mxCell id="89Pmgcc1S83VsgnzRbyy-4" value="D1/23&lt;br&gt;24 x 17" style="rounded=0;whiteSpace=wrap;html=1;direction=south;fontSize=34;" vertex="1" parent="1">
          <mxGeometry x="165" y="640" width="240" height="170" as="geometry" />
        </mxCell>
        <mxCell id="89Pmgcc1S83VsgnzRbyy-5" value="C1/23&lt;br&gt;28 x 17" style="rounded=0;whiteSpace=wrap;html=1;fontSize=34;" vertex="1" parent="1">
          <mxGeometry x="1280" y="390" width="280" height="170" as="geometry" />
        </mxCell>
        <mxCell id="89Pmgcc1S83VsgnzRbyy-6" value="E1/47&lt;br&gt;20 x 17" style="rounded=0;whiteSpace=wrap;html=1;fontSize=34;" vertex="1" parent="1">
          <mxGeometry x="1080" y="390" width="200" height="170" as="geometry" />
        </mxCell>
        <mxCell id="89Pmgcc1S83VsgnzRbyy-7" value="F3/16&lt;br&gt;20 x 13" style="rounded=0;whiteSpace=wrap;html=1;fontSize=34;" vertex="1" parent="1">
          <mxGeometry x="214" y="1000" width="200" height="130" as="geometry" />
        </mxCell>
        <mxCell id="89Pmgcc1S83VsgnzRbyy-8" value="G1/48&lt;br&gt;16 x 17" style="rounded=0;whiteSpace=wrap;html=1;fontSize=34;direction=south;" vertex="1" parent="1">
          <mxGeometry x="1081" y="220" width="160" height="170" as="geometry" />
        </mxCell>
        <mxCell id="89Pmgcc1S83VsgnzRbyy-9" value="H1/23&lt;br&gt;12 x 13" style="rounded=0;whiteSpace=wrap;html=1;fontSize=34;direction=south;" vertex="1" parent="1">
          <mxGeometry x="200" y="1340" width="120" height="130" as="geometry" />
        </mxCell>
        <mxCell id="89Pmgcc1S83VsgnzRbyy-21" value="C2/23&lt;br&gt;28 x 17" style="rounded=0;whiteSpace=wrap;html=1;fontSize=34;" vertex="1" parent="1">
          <mxGeometry x="165" y="450" width="280" height="170" as="geometry" />
        </mxCell>
        <mxCell id="89Pmgcc1S83VsgnzRbyy-24" value="E3&lt;br&gt;20 x 17" style="rounded=0;whiteSpace=wrap;html=1;fontSize=34;" vertex="1" parent="1">
          <mxGeometry x="1401" y="220" width="200" height="170" as="geometry" />
        </mxCell>
        <mxCell id="89Pmgcc1S83VsgnzRbyy-25" value="E2/47&lt;br&gt;20 x 17" style="rounded=0;whiteSpace=wrap;html=1;fontSize=34;" vertex="1" parent="1">
          <mxGeometry x="1560" y="390" width="200" height="170" as="geometry" />
        </mxCell>
        <mxCell id="89Pmgcc1S83VsgnzRbyy-28" value="F1/16&lt;br&gt;20 x 13" style="rounded=0;whiteSpace=wrap;html=1;fontSize=34;" vertex="1" parent="1">
          <mxGeometry x="1360" y="560" width="200" height="130" as="geometry" />
        </mxCell>
        <mxCell id="89Pmgcc1S83VsgnzRbyy-29" value="F2/16&lt;br&gt;20 x 13" style="rounded=0;whiteSpace=wrap;html=1;fontSize=34;" vertex="1" parent="1">
          <mxGeometry x="1560" y="560" width="200" height="130" as="geometry" />
        </mxCell>
        <mxCell id="89Pmgcc1S83VsgnzRbyy-32" value="G3/48&lt;br&gt;16 x 17" style="rounded=0;whiteSpace=wrap;html=1;fontSize=34;direction=south;" vertex="1" parent="1">
          <mxGeometry x="1600" y="220" width="160" height="170" as="geometry" />
        </mxCell>
        <mxCell id="89Pmgcc1S83VsgnzRbyy-43" value="68 x 47" style="text;html=1;strokeColor=none;fillColor=none;align=center;verticalAlign=middle;whiteSpace=wrap;rounded=0;fontSize=34;" vertex="1" parent="1">
          <mxGeometry x="1360" y="160" width="150" height="20" as="geometry" />
        </mxCell>
        <mxCell id="89Pmgcc1S83VsgnzRbyy-46" value="G4/48&lt;br&gt;16 x 17" style="rounded=0;whiteSpace=wrap;html=1;fontSize=34;direction=south;" vertex="1" parent="1">
          <mxGeometry x="200" y="1150" width="160" height="170" as="geometry" />
        </mxCell>
        <mxCell id="89Pmgcc1S83VsgnzRbyy-47" value="A2/31&lt;br&gt;28 x 13" style="rounded=0;whiteSpace=wrap;html=1;direction=south;fontSize=34;" vertex="1" parent="1">
          <mxGeometry x="145" y="130" width="280" height="130" as="geometry" />
        </mxCell>
        <mxCell id="89Pmgcc1S83VsgnzRbyy-52" value="G2/48&lt;br&gt;16 x 17" style="rounded=0;whiteSpace=wrap;html=1;fontSize=34;direction=south;" vertex="1" parent="1">
          <mxGeometry x="1241" y="220" width="160" height="170" as="geometry" />
        </mxCell>
        <mxCell id="89Pmgcc1S83VsgnzRbyy-58" value="E3/47&lt;br&gt;20 x 17" style="rounded=0;whiteSpace=wrap;html=1;fontSize=34;" vertex="1" parent="1">
          <mxGeometry x="185" y="820" width="200" height="170" as="geometry" />
        </mxCell>
      </root>
    </mxGraphModel>
  </diagram>
</mxfile>
